<?xml version="1.0" encoding="utf-8"?>
<!-- Generator: Adobe Illustrator 27.8.0, SVG Export Plug-In . SVG Version: 6.00 Build 0)  -->
<svg version="1.1" xmlns="http://www.w3.org/2000/svg" xmlns:xlink="http://www.w3.org/1999/xlink" x="0px" y="0px"
	 viewBox="0 0 64 64" style="enable-background:new 0 0 64 64;" xml:space="preserve">
<style type="text/css">
	.st0{fill:#FFFFFF;}
	.st1{fill:#E95392;}
	.st2{opacity:0.5;}
	.st3{fill:#E20834;}
	.st4{fill:#FEA8F1;}
</style>
<g id="Calque_1">
	<g>
		<g>
			<path class="st0" d="M52.1,17.2l1.1-4.2c1.4-5.2-1.7-9.5-7-9.5H20l-3.6,13.7c-0.3,1.3-0.4,2.6-0.2,3.8l0.1,0.4l-0.3,0.4
				c-0.8,1.2-1.4,2.5-1.8,3.8l-3.6,13.7h26.3c5.2,0,10.6-4.3,12-9.5l1.1-4.2c0.3-1.3,0.4-2.6,0.2-3.8L50,21.4l0.3-0.4
				C51.1,19.8,51.7,18.5,52.1,17.2z"/>
			<path class="st0" d="M36.7,42.1H10.5c-0.9,0-1.7-0.4-2.3-1.1c-0.5-0.7-0.7-1.6-0.5-2.5l3.6-13.7c0.4-1.4,1-2.8,1.8-4.2
				c-0.1-1.4,0-2.8,0.4-4.2l3.6-13.7c0.3-1.3,1.5-2.1,2.8-2.1h26.3c3.4,0,6.3,1.3,8.2,3.8c1.9,2.5,2.5,5.9,1.6,9.3l-1.1,4.2
				c0,0,0,0,0,0c-0.4,1.4-1,2.8-1.8,4.2c0.1,1.4,0,2.8-0.4,4.2l-1.1,4.2C49.8,37,43.3,42.1,36.7,42.1z M14.2,36.4h22.5
				c4,0,8.2-3.4,9.2-7.4l1.1-4.2c0.2-0.9,0.3-1.8,0.2-2.6c0,0,0,0,0,0l-0.1-0.4c-0.1-0.7,0.1-1.4,0.5-2l0.3-0.4c0,0,0,0,0,0
				c0.6-0.9,1.1-1.9,1.4-2.9l1.1-4.2c0.5-1.7,0.2-3.3-0.6-4.4c-0.8-1-2.1-1.6-3.6-1.6h-24l-3.1,11.6c-0.2,0.9-0.3,1.8-0.2,2.6
				c0,0,0,0,0,0L19,21c0.1,0.7-0.1,1.4-0.5,2l-0.3,0.4c0,0,0,0,0,0c-0.6,0.9-1.1,1.9-1.4,2.9L14.2,36.4z M52.1,17.2L52.1,17.2
				L52.1,17.2z"/>
		</g>
		<g>
			<path class="st1" d="M52.1,17.2l1.1-4.2c1.4-5.2-1.7-9.5-7-9.5H20l-3.6,13.7c-0.3,1.3-0.4,2.6-0.2,3.8l0.1,0.4l-0.3,0.4
				c-0.8,1.2-1.4,2.5-1.8,3.8l-3.6,13.7h26.3c5.2,0,10.6-4.3,12-9.5l1.1-4.2c0.3-1.3,0.4-2.6,0.2-3.8L50,21.4l0.3-0.4
				C51.1,19.8,51.7,18.5,52.1,17.2z"/>
		</g>
		<g>
			<path d="M36.7,39.6H10.5c-0.1,0-0.2,0-0.2-0.1c-0.1-0.1-0.1-0.2,0-0.2l3.6-13.7c0.4-1.3,1-2.7,1.8-3.9l0.2-0.3l0-0.3
				c-0.2-1.2-0.1-2.6,0.2-3.9l3.6-13.7c0-0.1,0.1-0.2,0.3-0.2h26.3c2.6,0,4.7,1,6.1,2.8c1.4,1.9,1.9,4.4,1.1,7.1l-1.1,4.2v0
				c-0.4,1.3-1,2.7-1.8,3.9l-0.2,0.3l0,0.3c0.2,1.2,0.1,2.6-0.2,3.9L49,29.9C47.6,35.2,42.1,39.6,36.7,39.6z M10.9,39h25.9
				c5.1,0,10.4-4.2,11.7-9.3l1.1-4.2c0.3-1.3,0.4-2.5,0.2-3.7l-0.1-0.4c0-0.1,0-0.1,0-0.2l0.3-0.4c0.8-1.2,1.4-2.4,1.8-3.7l1.1-4.2
				c0.7-2.5,0.3-4.8-1-6.6c-1.3-1.6-3.3-2.6-5.7-2.6h-26l-3.6,13.5c-0.3,1.3-0.4,2.5-0.2,3.7l0.1,0.4c0,0.1,0,0.1,0,0.2L16.1,22
				c-0.8,1.2-1.4,2.4-1.8,3.7L10.9,39z M52.1,17.2L52.1,17.2L52.1,17.2z"/>
		</g>
		<g class="st2">
			<ellipse transform="matrix(0.7521 -0.659 0.659 0.7521 -0.5957 22.4096)" class="st3" cx="29.5" cy="12" rx="2.3" ry="1.7"/>
		</g>
		<g class="st2">
			<ellipse transform="matrix(0.7521 -0.659 0.659 0.7521 2.412 30.4063)" class="st3" cx="41.6" cy="12" rx="2.3" ry="1.7"/>
		</g>
		<g>
			<ellipse transform="matrix(0.3919 -0.92 0.92 0.3919 8.571 37.0457)" class="st0" cx="32.3" cy="12" rx="3.9" ry="2.3"/>
		</g>
		<g>
			<ellipse transform="matrix(0.415 -0.9098 0.9098 0.415 6.8498 37.1014)" cx="32.3" cy="13.2" rx="2.9" ry="1.8"/>
		</g>
		<g>
			<polygon class="st0" points="34.4,12 32.6,13.2 34.1,14.1 			"/>
		</g>
		<g>
			<ellipse transform="matrix(0.3919 -0.92 0.92 0.3919 12.6898 43.277)" class="st0" cx="39.1" cy="12" rx="3.9" ry="2.3"/>
		</g>
		<g>
			<ellipse transform="matrix(0.415 -0.9098 0.9098 0.415 10.835 43.2993)" cx="39.1" cy="13.2" rx="2.9" ry="1.8"/>
		</g>
		<g>
			<polygon class="st0" points="41.2,12 39.4,13.2 40.8,14.1 			"/>
		</g>
		<g>
			<path d="M30.9,6c0.5-0.5,0.9-0.7,1.2-0.8c0.1-0.1,0.3,0,0.3,0c0.1,0.1,0.2,0.3-0.2,0.5c-0.5,0.2-0.7,0.2-1.1,0.4
				C30.9,6.2,30.9,6,30.9,6z"/>
		</g>
		<g>
			<path d="M37.9,6c0.5-0.5,0.9-0.7,1.2-0.8c0.1-0.1,0.3,0,0.3,0c0.1,0.1,0.2,0.3-0.2,0.5c-0.5,0.2-0.7,0.2-1.1,0.4
				C37.9,6.2,37.9,6,37.9,6z"/>
		</g>
		<g>
			<path class="st0" d="M15.8,63.3c-0.1,0-0.2,0-0.3,0c-0.5-0.1-0.8-0.7-0.7-1.2l3.4-12.6c0.1-0.5,0.7-0.8,1.2-0.7
				c0.5,0.1,0.8,0.7,0.7,1.2l-3.4,12.6C16.7,63,16.3,63.3,15.8,63.3z"/>
		</g>
		<g>
			<path class="st0" d="M26.4,63.3c-0.1,0-0.2,0-0.3,0c-0.5-0.1-0.8-0.7-0.7-1.2l3.4-12.6c0.1-0.5,0.7-0.8,1.2-0.7
				c0.5,0.1,0.8,0.7,0.7,1.2l-3.4,12.6C27.3,63,26.9,63.3,26.4,63.3z"/>
		</g>
		<g>
			<path class="st0" d="M22.8,57c-0.1,0-0.2,0-0.3,0c-0.5-0.1-0.8-0.7-0.7-1.2l1.7-6.3c0.1-0.5,0.7-0.8,1.2-0.7
				c0.5,0.1,0.8,0.7,0.7,1.2l-1.7,6.3C23.7,56.8,23.3,57,22.8,57z"/>
		</g>
		<g>
			<path d="M31.3,16c-0.5,0-1-0.2-1.3-0.7c-0.6-0.7-0.7-2-0.3-3.4c0.6-2.2,2.2-3.9,3.6-3.9c0.5,0,1,0.2,1.3,0.7
				c0.6,0.7,0.7,2,0.3,3.4C34.4,14.3,32.8,16,31.3,16z M33.3,8.6c-1.2,0-2.6,1.6-3.1,3.5c-0.3,1.2-0.2,2.3,0.2,2.9
				c0.2,0.3,0.5,0.4,0.9,0.4c1.2,0,2.6-1.6,3.1-3.5c0.3-1.2,0.2-2.3-0.2-2.9C33.9,8.8,33.6,8.6,33.3,8.6z"/>
		</g>
		<g>
			<path d="M38.1,16c-0.5,0-1-0.2-1.3-0.7c-0.6-0.7-0.7-2-0.3-3.4c0.6-2.2,2.2-3.9,3.6-3.9c0.5,0,1,0.2,1.3,0.7
				c0.6,0.7,0.7,2,0.3,3.4C41.2,14.3,39.6,16,38.1,16z M40.1,8.6c-1.2,0-2.6,1.6-3.1,3.5c-0.3,1.2-0.2,2.3,0.2,2.9
				c0.2,0.3,0.5,0.4,0.9,0.4c1.2,0,2.6-1.6,3.1-3.5c0.3-1.2,0.2-2.3-0.2-2.9C40.7,8.8,40.4,8.6,40.1,8.6z"/>
		</g>
		<g>
			<ellipse transform="matrix(0.7506 -0.6608 0.6608 0.7506 -4.8724 27.0243)" cx="33.4" cy="20" rx="3" ry="2"/>
		</g>
		<g>
			<g>
				<path class="st4" d="M33.8,18.9c-1.1,0-2.3,0.7-3,1.7c-0.1,1,0.5,1.8,1.6,1.8c1.1,0,2.3-0.7,3-1.7
					C35.5,19.7,34.8,18.9,33.8,18.9z"/>
			</g>
		</g>
		<g>
			<path d="M32.4,22.7c-0.7,0-1.3-0.3-1.6-0.8c-0.4-0.5-0.4-1.3-0.1-2.1c0.6-1.5,2.2-2.6,3.6-2.6c0.7,0,1.3,0.3,1.6,0.8
				c0.4,0.5,0.4,1.3,0.1,2.1l0,0C35.4,21.6,33.8,22.7,32.4,22.7z M34.3,17.8c-1.2,0-2.6,1-3.1,2.3c-0.2,0.6-0.2,1.2,0,1.6
				c0.2,0.3,0.6,0.5,1.1,0.5c1.2,0,2.6-1,3.1-2.3l0,0c0.2-0.6,0.2-1.2,0-1.6C35.2,18,34.8,17.8,34.3,17.8z M35.8,20L35.8,20L35.8,20
				z"/>
		</g>
	</g>
</g>
<g id="Calque_2">
</g>
<g id="Calque_3">
</g>
<g id="Calque_4">
</g>
</svg>
