<?xml version="1.0" encoding="UTF-8" standalone="no"?>
<!-- Generator: Adobe Illustrator 27.8.0, SVG Export Plug-In . SVG Version: 6.00 Build 0)  -->

<svg
   version="1.1"
   x="0px"
   y="0px"
   viewBox="0 0 64 64"
   style="enable-background:new 0 0 64 64;"
   xml:space="preserve"
   id="svg24"
   sodipodi:docname="fall.svg"
   inkscape:version="1.4 (86a8ad7, 2024-10-11)"
   xmlns:inkscape="http://www.inkscape.org/namespaces/inkscape"
   xmlns:sodipodi="http://sodipodi.sourceforge.net/DTD/sodipodi-0.dtd"
   xmlns="http://www.w3.org/2000/svg"
   xmlns:svg="http://www.w3.org/2000/svg"><defs
   id="defs24">
	

		
		
		
		
		
		
		
		
		
		
		
		
		
		
		
		
		
		
		
		
		
	</defs><sodipodi:namedview
   id="namedview24"
   pagecolor="#ffffff"
   bordercolor="#000000"
   borderopacity="0.25"
   inkscape:showpageshadow="2"
   inkscape:pageopacity="0.0"
   inkscape:pagecheckerboard="0"
   inkscape:deskcolor="#d1d1d1"
   inkscape:zoom="12.609375"
   inkscape:cx="32"
   inkscape:cy="11.856258"
   inkscape:window-width="1920"
   inkscape:window-height="1009"
   inkscape:window-x="-8"
   inkscape:window-y="-8"
   inkscape:window-maximized="1"
   inkscape:current-layer="svg24" />
<style
   type="text/css"
   id="style1">
	.st0{fill:#FFFFFF;}
	.st1{fill:#E95392;}
	.st2{opacity:0.5;}
	.st3{fill:#E20834;}
	.st4{fill:#FEA8F1;}
</style>
<g
   id="g25"
   transform="matrix(1,0,0,-1,0,64.08084)"><g
     id="g15">
			<path
   class="st0"
   d="m 15.8,63.3 c -0.1,0 -0.2,0 -0.3,0 -0.5,-0.1 -0.8,-0.7 -0.7,-1.2 l 3.4,-12.6 c 0.1,-0.5 0.7,-0.8 1.2,-0.7 0.5,0.1 0.8,0.7 0.7,1.2 l -3.4,12.6 c 0,0.4 -0.4,0.7 -0.9,0.7 z"
   id="path14" />
		</g><g
     id="g16">
			<path
   class="st0"
   d="m 26.4,63.3 c -0.1,0 -0.2,0 -0.3,0 -0.5,-0.1 -0.8,-0.7 -0.7,-1.2 l 3.4,-12.6 c 0.1,-0.5 0.7,-0.8 1.2,-0.7 0.5,0.1 0.8,0.7 0.7,1.2 l -3.4,12.6 c 0,0.4 -0.4,0.7 -0.9,0.7 z"
   id="path15" />
		</g><g
     id="g17">
			<path
   class="st0"
   d="m 22.8,57 c -0.1,0 -0.2,0 -0.3,0 -0.5,-0.1 -0.8,-0.7 -0.7,-1.2 l 1.7,-6.3 c 0.1,-0.5 0.7,-0.8 1.2,-0.7 0.5,0.1 0.8,0.7 0.7,1.2 l -1.7,6.3 c 0,0.5 -0.4,0.7 -0.9,0.7 z"
   id="path16" />
		</g></g><g
   id="g24"
   transform="translate(0,21.427509)"><g
     id="g2">
			<path
   class="st0"
   d="M 52.1,17.2 53.2,13 C 54.6,7.8 51.5,3.5 46.2,3.5 H 20 L 16.4,17.2 C 16.1,18.5 16,19.8 16.2,21 l 0.1,0.4 -0.3,0.4 c -0.8,1.2 -1.4,2.5 -1.8,3.8 l -3.6,13.7 h 26.3 c 5.2,0 10.6,-4.3 12,-9.5 L 50,25.6 c 0.3,-1.3 0.4,-2.6 0.2,-3.8 L 50,21.4 50.3,21 c 0.8,-1.2 1.4,-2.5 1.8,-3.8 z"
   id="path1" />
			<path
   class="st0"
   d="M 36.7,42.1 H 10.5 C 9.6,42.1 8.8,41.7 8.2,41 7.7,40.3 7.5,39.4 7.7,38.5 l 3.6,-13.7 c 0.4,-1.4 1,-2.8 1.8,-4.2 -0.1,-1.4 0,-2.8 0.4,-4.2 L 17.1,2.7 c 0.3,-1.3 1.5,-2.1 2.8,-2.1 h 26.3 c 3.4,0 6.3,1.3 8.2,3.8 1.9,2.5 2.5,5.9 1.6,9.3 l -1.1,4.2 c 0,0 0,0 0,0 -0.4,1.4 -1,2.8 -1.8,4.2 0.1,1.4 0,2.8 -0.4,4.2 l -1.1,4.2 C 49.8,37 43.3,42.1 36.7,42.1 Z M 14.2,36.4 h 22.5 c 4,0 8.2,-3.4 9.2,-7.4 L 47,24.8 c 0.2,-0.9 0.3,-1.8 0.2,-2.6 0,0 0,0 0,0 l -0.1,-0.4 c -0.1,-0.7 0.1,-1.4 0.5,-2 l 0.3,-0.4 c 0,0 0,0 0,0 0.6,-0.9 1.1,-1.9 1.4,-2.9 l 1.1,-4.2 C 50.9,10.6 50.6,9 49.8,7.9 49,6.9 47.7,6.3 46.2,6.3 h -24 l -3.1,11.6 c -0.2,0.9 -0.3,1.8 -0.2,2.6 0,0 0,0 0,0 L 19,21 c 0.1,0.7 -0.1,1.4 -0.5,2 l -0.3,0.4 c 0,0 0,0 0,0 -0.6,0.9 -1.1,1.9 -1.4,2.9 z M 52.1,17.2 Z"
   id="path2" />
		</g><g
     id="g3">
			<path
   class="st1"
   d="M 52.1,17.2 53.2,13 C 54.6,7.8 51.5,3.5 46.2,3.5 H 20 L 16.4,17.2 C 16.1,18.5 16,19.8 16.2,21 l 0.1,0.4 -0.3,0.4 c -0.8,1.2 -1.4,2.5 -1.8,3.8 l -3.6,13.7 h 26.3 c 5.2,0 10.6,-4.3 12,-9.5 L 50,25.6 c 0.3,-1.3 0.4,-2.6 0.2,-3.8 L 50,21.4 50.3,21 c 0.8,-1.2 1.4,-2.5 1.8,-3.8 z"
   id="path3" />
		</g><g
     id="g4">
			<path
   d="M 36.7,39.6 H 10.5 c -0.1,0 -0.2,0 -0.2,-0.1 -0.1,-0.1 -0.1,-0.2 0,-0.2 l 3.6,-13.7 c 0.4,-1.3 1,-2.7 1.8,-3.9 l 0.2,-0.3 v -0.3 c -0.2,-1.2 -0.1,-2.6 0.2,-3.9 L 19.7,3.5 c 0,-0.1 0.1,-0.2 0.3,-0.2 h 26.3 c 2.6,0 4.7,1 6.1,2.8 1.4,1.9 1.9,4.4 1.1,7.1 l -1.1,4.2 v 0 c -0.4,1.3 -1,2.7 -1.8,3.9 l -0.2,0.3 v 0.3 c 0.2,1.2 0.1,2.6 -0.2,3.9 L 49,29.9 c -1.4,5.3 -6.9,9.7 -12.3,9.7 z M 10.9,39 h 25.9 c 5.1,0 10.4,-4.2 11.7,-9.3 l 1.1,-4.2 C 49.9,24.2 50,23 49.8,21.8 l -0.1,-0.4 c 0,-0.1 0,-0.1 0,-0.2 L 50,20.8 c 0.8,-1.2 1.4,-2.4 1.8,-3.7 l 1.1,-4.2 C 53.6,10.4 53.2,8.1 51.9,6.3 50.6,4.7 48.6,3.7 46.2,3.7 h -26 l -3.6,13.5 c -0.3,1.3 -0.4,2.5 -0.2,3.7 l 0.1,0.4 c 0,0.1 0,0.1 0,0.2 L 16.1,22 c -0.8,1.2 -1.4,2.4 -1.8,3.7 z M 52.1,17.2 Z"
   id="path4" />
		</g><g
     class="st2"
     id="g5">
			<ellipse
   transform="matrix(0.7521,-0.659,0.659,0.7521,-0.5957,22.4096)"
   class="st3"
   cx="29.5"
   cy="12"
   rx="2.3"
   ry="1.7"
   id="ellipse4" />
		</g><g
     class="st2"
     id="g6">
			<ellipse
   transform="matrix(0.7521,-0.659,0.659,0.7521,2.412,30.4063)"
   class="st3"
   cx="41.599998"
   cy="12"
   rx="2.3"
   ry="1.7"
   id="ellipse5" />
		</g><g
     id="g7">
			<ellipse
   transform="matrix(0.3919,-0.92,0.92,0.3919,8.571,37.0457)"
   class="st0"
   cx="32.299999"
   cy="12"
   rx="3.9000001"
   ry="2.3"
   id="ellipse6" />
		</g><g
     id="g8">
			<ellipse
   transform="matrix(0.415,-0.9098,0.9098,0.415,6.8498,37.1014)"
   cx="32.299999"
   cy="13.2"
   rx="2.9000001"
   ry="1.8"
   id="ellipse7" />
		</g><g
     id="g9">
			<polygon
   class="st0"
   points="32.6,13.2 34.1,14.1 34.4,12 "
   id="polygon8" />
		</g><g
     id="g10">
			<ellipse
   transform="matrix(0.3919,-0.92,0.92,0.3919,12.6898,43.277)"
   class="st0"
   cx="39.099998"
   cy="12"
   rx="3.9000001"
   ry="2.3"
   id="ellipse9" />
		</g><g
     id="g11">
			<ellipse
   transform="matrix(0.415,-0.9098,0.9098,0.415,10.835,43.2993)"
   cx="39.099998"
   cy="13.2"
   rx="2.9000001"
   ry="1.8"
   id="ellipse10" />
		</g><g
     id="g12">
			<polygon
   class="st0"
   points="39.4,13.2 40.8,14.1 41.2,12 "
   id="polygon11" />
		</g><g
     id="g13">
			<path
   d="m 30.9,6 c 0.5,-0.5 0.9,-0.7 1.2,-0.8 0.1,-0.1 0.3,0 0.3,0 0.1,0.1 0.2,0.3 -0.2,0.5 C 31.7,5.9 31.5,5.9 31.1,6.1 30.9,6.2 30.9,6 30.9,6 Z"
   id="path12" />
		</g><g
     id="g14">
			<path
   d="m 37.9,6 c 0.5,-0.5 0.9,-0.7 1.2,-0.8 0.1,-0.1 0.3,0 0.3,0 0.1,0.1 0.2,0.3 -0.2,0.5 C 38.7,5.9 38.5,5.9 38.1,6.1 37.9,6.2 37.9,6 37.9,6 Z"
   id="path13" />
		</g><g
     id="g18">
			<path
   d="m 31.3,16 c -0.5,0 -1,-0.2 -1.3,-0.7 -0.6,-0.7 -0.7,-2 -0.3,-3.4 0.6,-2.2 2.2,-3.9 3.6,-3.9 0.5,0 1,0.2 1.3,0.7 0.6,0.7 0.7,2 0.3,3.4 -0.5,2.2 -2.1,3.9 -3.6,3.9 z m 2,-7.4 c -1.2,0 -2.6,1.6 -3.1,3.5 -0.3,1.2 -0.2,2.3 0.2,2.9 0.2,0.3 0.5,0.4 0.9,0.4 1.2,0 2.6,-1.6 3.1,-3.5 C 34.7,10.7 34.6,9.6 34.2,9 33.9,8.8 33.6,8.6 33.3,8.6 Z"
   id="path17" />
		</g><g
     id="g19">
			<path
   d="m 38.1,16 c -0.5,0 -1,-0.2 -1.3,-0.7 -0.6,-0.7 -0.7,-2 -0.3,-3.4 0.6,-2.2 2.2,-3.9 3.6,-3.9 0.5,0 1,0.2 1.3,0.7 0.6,0.7 0.7,2 0.3,3.4 -0.5,2.2 -2.1,3.9 -3.6,3.9 z m 2,-7.4 c -1.2,0 -2.6,1.6 -3.1,3.5 -0.3,1.2 -0.2,2.3 0.2,2.9 0.2,0.3 0.5,0.4 0.9,0.4 1.2,0 2.6,-1.6 3.1,-3.5 C 41.5,10.7 41.4,9.6 41,9 40.7,8.8 40.4,8.6 40.1,8.6 Z"
   id="path18" />
		</g><g
     id="g20">
			<ellipse
   transform="matrix(0.7506,-0.6608,0.6608,0.7506,-4.8724,27.0243)"
   cx="33.400002"
   cy="20"
   rx="3"
   ry="2"
   id="ellipse19" />
		</g><g
     id="g22">
			<g
   id="g21">
				<path
   class="st4"
   d="m 33.8,18.9 c -1.1,0 -2.3,0.7 -3,1.7 -0.1,1 0.5,1.8 1.6,1.8 1.1,0 2.3,-0.7 3,-1.7 0.1,-1 -0.6,-1.8 -1.6,-1.8 z"
   id="path20" />
			</g>
		</g><g
     id="g23">
			<path
   d="m 32.4,22.7 c -0.7,0 -1.3,-0.3 -1.6,-0.8 -0.4,-0.5 -0.4,-1.3 -0.1,-2.1 0.6,-1.5 2.2,-2.6 3.6,-2.6 0.7,0 1.3,0.3 1.6,0.8 0.4,0.5 0.4,1.3 0.1,2.1 v 0 c -0.6,1.5 -2.2,2.6 -3.6,2.6 z m 1.9,-4.9 c -1.2,0 -2.6,1 -3.1,2.3 -0.2,0.6 -0.2,1.2 0,1.6 0.2,0.3 0.6,0.5 1.1,0.5 1.2,0 2.6,-1 3.1,-2.3 v 0 c 0.2,-0.6 0.2,-1.2 0,-1.6 -0.2,-0.3 -0.6,-0.5 -1.1,-0.5 z m 1.5,2.2 z"
   id="path22" />
		</g></g>
<g
   id="Calque_2"
   style="display:inline">
</g>
<g
   id="Calque_3"
   style="display:inline">
</g>
<g
   id="Calque_4"
   style="display:inline">
</g>
</svg>
