<?xml version="1.0" encoding="utf-8"?>
<!-- Generator: Adobe Illustrator 27.8.0, SVG Export Plug-In . SVG Version: 6.00 Build 0)  -->
<svg version="1.1" xmlns="http://www.w3.org/2000/svg" xmlns:xlink="http://www.w3.org/1999/xlink" x="0px" y="0px"
	 viewBox="0 0 64 64" style="enable-background:new 0 0 64 64;" xml:space="preserve">
<style type="text/css">
	.st0{fill:#FFFFFF;}
	.st1{fill:#E95392;}
	.st2{opacity:0.5;}
	.st3{fill:#E20834;}
</style>
<g id="Calque_1">
	<g>
		<g>
			<path class="st0" d="M59.7,27.8l1.1-4.2c1.4-5.2-1.7-9.5-7-9.5H27.6L24,27.8c-0.3,1.3-0.4,2.6-0.2,3.8l0.1,0.4l-0.3,0.4
				c-0.8,1.2-1.4,2.5-1.8,3.8l-3.6,13.7h26.3c5.2,0,10.6-4.3,12-9.5l1.1-4.2c0.3-1.3,0.4-2.6,0.2-3.8L57.6,32l0.3-0.4
				C58.8,30.4,59.4,29.1,59.7,27.8z"/>
			<path class="st0" d="M44.4,52.7H18.1c-0.9,0-1.7-0.4-2.3-1.1c-0.5-0.7-0.7-1.6-0.5-2.5L19,35.5c0.4-1.4,1-2.8,1.8-4.2
				c-0.1-1.4,0-2.8,0.4-4.2l3.6-13.7c0.3-1.3,1.5-2.1,2.8-2.1h26.3c3.4,0,6.3,1.3,8.2,3.8c1.9,2.5,2.5,5.9,1.6,9.3l-1.1,4.2
				c0,0,0,0,0,0c-0.4,1.4-1,2.8-1.8,4.2c0.1,1.4,0,2.8-0.4,4.2l-1.1,4.2C57.4,47.6,50.9,52.7,44.4,52.7z M21.8,47h22.5
				c4,0,8.2-3.4,9.2-7.4l1.1-4.2c0.2-0.9,0.3-1.8,0.2-2.6c0,0,0,0,0,0l-0.1-0.4c-0.1-0.7,0.1-1.4,0.5-2l0.3-0.4c0,0,0,0,0,0
				c0.6-0.9,1.1-1.9,1.4-2.9l1.1-4.2c0.5-1.7,0.2-3.3-0.6-4.4c-0.8-1-2.1-1.6-3.6-1.6h-24l-3.1,11.6c-0.2,0.9-0.3,1.8-0.2,2.6
				c0,0,0,0,0,0l0.1,0.4c0.1,0.7-0.1,1.4-0.5,2L25.9,34c0,0,0,0,0,0c-0.6,0.9-1.1,1.9-1.4,2.9L21.8,47z M59.7,27.8L59.7,27.8
				L59.7,27.8z"/>
		</g>
		<g>
			<path class="st1" d="M59.7,27.8l1.1-4.2c1.4-5.2-1.7-9.5-7-9.5H27.6L24,27.8c-0.3,1.3-0.4,2.6-0.2,3.8l0.1,0.4l-0.3,0.4
				c-0.8,1.2-1.4,2.5-1.8,3.8l-3.6,13.7h26.3c5.2,0,10.6-4.3,12-9.5l1.1-4.2c0.3-1.3,0.4-2.6,0.2-3.8L57.6,32l0.3-0.4
				C58.8,30.4,59.4,29.1,59.7,27.8z"/>
		</g>
		<g>
			<path d="M44.4,50.2H18.1c-0.1,0-0.2,0-0.2-0.1c-0.1-0.1-0.1-0.2,0-0.2l3.6-13.7c0.4-1.3,1-2.7,1.8-3.9l0.2-0.3l0-0.3
				c-0.2-1.2-0.1-2.6,0.2-3.9L27.3,14c0-0.1,0.1-0.2,0.3-0.2h26.3c2.6,0,4.7,1,6.1,2.8c1.4,1.9,1.9,4.4,1.1,7.1L60,27.9v0
				c-0.4,1.3-1,2.7-1.8,3.9l-0.2,0.3l0,0.3c0.2,1.2,0.1,2.6-0.2,3.9l-1.1,4.2C55.2,45.8,49.7,50.2,44.4,50.2z M18.5,49.6h25.9
				c5.1,0,10.4-4.2,11.7-9.3l1.1-4.2c0.3-1.3,0.4-2.5,0.2-3.7L57.4,32c0-0.1,0-0.1,0-0.2l0.3-0.4c0.8-1.2,1.4-2.4,1.8-3.7l1.1-4.2
				c0.7-2.5,0.3-4.8-1-6.6c-1.3-1.6-3.3-2.6-5.7-2.6h-26l-3.6,13.5c-0.3,1.3-0.4,2.5-0.2,3.7l0.1,0.4c0,0.1,0,0.1,0,0.2l-0.3,0.4
				c-0.8,1.2-1.4,2.4-1.8,3.7L18.5,49.6z M59.7,27.8L59.7,27.8L59.7,27.8z"/>
		</g>
		<g class="st2">
			<ellipse transform="matrix(0.7521 -0.659 0.659 0.7521 -4.5062 34.3491)" class="st3" cx="43.4" cy="23.2" rx="2.3" ry="1.7"/>
		</g>
		<g class="st2">
			<ellipse transform="matrix(0.7521 -0.659 0.659 0.7521 -1.4985 42.3457)" class="st3" cx="55.5" cy="23.2" rx="2.3" ry="1.7"/>
		</g>
		<g>
			<path class="st0" d="M16.7,26.3H4.1c-0.6,0-1-0.4-1-1s0.4-1,1-1h12.6c0.6,0,1,0.4,1,1S17.3,26.3,16.7,26.3z"/>
		</g>
		<g>
			<path class="st0" d="M13.6,36.9H1c-0.6,0-1-0.4-1-1s0.4-1,1-1h12.6c0.6,0,1,0.4,1,1S14.1,36.9,13.6,36.9z"/>
		</g>
		<g>
			<path class="st0" d="M14.7,31.6H8.4c-0.6,0-1-0.4-1-1c0-0.6,0.4-1,1-1h6.3c0.6,0,1,0.4,1,1C15.7,31.1,15.3,31.6,14.7,31.6z"/>
		</g>
		<g>
			<g>
				<ellipse transform="matrix(0.3919 -0.92 0.92 0.3919 6.7592 56.6413)" class="st0" cx="46.2" cy="23.2" rx="3.9" ry="2.3"/>
			</g>
			<g>
				<ellipse transform="matrix(0.415 -0.9098 0.9098 0.415 6.3733 56.4082)" cx="47.1" cy="23.2" rx="2.9" ry="1.8"/>
			</g>
			<g>
				<polygon class="st0" points="48.6,22 46.8,23.2 48.3,24.2 				"/>
			</g>
			<g>
				<path d="M44.8,19.2c0.5-0.5,0.9-0.7,1.2-0.8c0.1-0.1,0.3,0,0.3,0c0.1,0.1,0.2,0.3-0.2,0.5c-0.5,0.2-0.7,0.2-1.1,0.4
					C44.8,19.4,44.8,19.2,44.8,19.2z"/>
			</g>
			<g>
				<path d="M45.2,27.2c-0.5,0-1-0.2-1.3-0.7c-0.6-0.7-0.7-2-0.3-3.4c0.6-2.2,2.2-3.9,3.6-3.9c0.5,0,1,0.2,1.3,0.7
					c0.6,0.7,0.7,2,0.3,3.4C48.3,25.5,46.7,27.2,45.2,27.2z M47.2,19.8c-1.2,0-2.6,1.6-3.1,3.5c-0.3,1.2-0.2,2.3,0.2,2.9
					c0.2,0.3,0.5,0.4,0.9,0.4c1.2,0,2.6-1.6,3.1-3.5c0.3-1.2,0.2-2.3-0.2-2.9C47.9,20,47.6,19.8,47.2,19.8z"/>
			</g>
		</g>
		<g>
			<g>
				<ellipse transform="matrix(0.3919 -0.92 0.92 0.3919 10.9344 62.9579)" class="st0" cx="53.1" cy="23.2" rx="3.9" ry="2.3"/>
			</g>
			<g>
				<ellipse transform="matrix(0.415 -0.9098 0.9098 0.415 10.3898 62.6548)" cx="53.9" cy="23.2" rx="2.9" ry="1.8"/>
			</g>
			<g>
				<polygon class="st0" points="55.5,22 53.7,23.2 55.1,24.2 				"/>
			</g>
			<g>
				<path d="M51.7,19.2c0.5-0.5,0.9-0.7,1.2-0.8c0.1-0.1,0.3,0,0.3,0c0.1,0.1,0.2,0.3-0.2,0.5c-0.5,0.2-0.7,0.2-1.1,0.4
					C51.7,19.4,51.7,19.2,51.7,19.2z"/>
			</g>
			<g>
				<path d="M52.1,27.2c-0.5,0-1-0.2-1.3-0.7c-0.6-0.7-0.7-2-0.3-3.4c0.6-2.2,2.2-3.9,3.6-3.9c0.5,0,1,0.2,1.3,0.7
					c0.6,0.7,0.7,2,0.3,3.4C55.2,25.5,53.6,27.2,52.1,27.2z M54.1,19.8c-1.2,0-2.6,1.6-3.1,3.5c-0.3,1.2-0.2,2.3,0.2,2.9
					c0.2,0.3,0.5,0.4,0.9,0.4c1.2,0,2.6-1.6,3.1-3.5c0.3-1.2,0.2-2.3-0.2-2.9C54.7,20,54.4,19.8,54.1,19.8z"/>
			</g>
		</g>
		<g>
			<path d="M40.8,28.9C40.8,28.9,40.7,28.9,40.8,28.9c-0.2,0-0.3-0.2-0.3-0.3c0.1-0.6,0.8-1,1.5-1c0.5,0,1,0.2,1.3,0.5
				c0.1,0.1,0.1,0.3,0,0.4c-0.1,0.1-0.3,0.1-0.4,0c-0.2-0.2-0.5-0.3-0.9-0.3c-0.5,0-0.9,0.3-1,0.5C41,28.8,40.9,28.9,40.8,28.9z"/>
		</g>
		<g>
			<path d="M46.3,31.9c-1.1,0-4.6,0-4.6-3.8c0-0.2,0.1-0.3,0.3-0.3c0.2,0,0.3,0.1,0.3,0.3c0,2.9,2.2,3.2,4,3.2
				c1.6,0,3.3-0.5,4.7-1.2c0.1-0.1,0.3,0,0.4,0.1c0.1,0.1,0,0.3-0.1,0.4C49.8,31.4,48,31.9,46.3,31.9z"/>
		</g>
	</g>
</g>
<g id="Calque_2">
</g>
<g id="Calque_3">
</g>
<g id="Calque_4">
</g>
</svg>
