<?xml version="1.0" encoding="utf-8"?>
<!-- Generator: Adobe Illustrator 27.8.0, SVG Export Plug-In . SVG Version: 6.00 Build 0)  -->
<svg version="1.1" id="Calque_1" xmlns="http://www.w3.org/2000/svg" xmlns:xlink="http://www.w3.org/1999/xlink" x="0px" y="0px"
	 viewBox="0 0 100 200" style="enable-background:new 0 0 100 200;" xml:space="preserve">
<style type="text/css">
	.st0{fill:none;stroke:#FFFFFF;stroke-width:1.5;stroke-linejoin:round;stroke-miterlimit:10;}
</style>
<path class="st0" d="M100,100h-2c-0.8,0-1.5-0.1-2,0.4c-1.2,1.2-3,1.6-3.8,0.2l-1.1-2c-1-1.7-3.5-1.7-4.5,0l-1.1,2
	c-1,1.7-3.5,1.7-4.5,0l-1.1-2c-1-1.7-3.5-1.7-4.5,0l-1.1,2c-1,1.7-3.5,1.7-4.5,0l-1.1-2c-1-1.7-3.5-1.7-4.5,0l-1.1,2
	c-1,1.7-3.5,1.7-4.5,0l-1.1-2c-1-1.7-3.5-1.7-4.5,0l-1.1,2c-1,1.7-3.5,1.7-4.5,0l-1.1-2c-1-1.7-3.5-1.7-4.5,0l-1.1,2
	c-1,1.7-3.5,1.7-4.5,0l-1.1-2c-1-1.7-3.5-1.7-4.5,0l-1.1,2c-1,1.7-3.5,1.7-4.5,0l-1.1-2c-1-1.7-3.5-1.7-4.5,0l-1.1,2
	c-1,1.7-3.5,1.7-4.5,0l-1.1-2c-1-1.7-3.5-1.7-4.5,0l-1.1,2c-0.8,1.4-2.6,1-3.8-0.2c-0.5-0.5-1.3-0.4-2-0.4H0"/>
</svg>
