<?xml version="1.0" encoding="UTF-8" standalone="no"?>
<!-- Generator: Adobe Illustrator 27.8.0, SVG Export Plug-In . SVG Version: 6.00 Build 0)  -->

<svg
   version="1.1"
   id="Calque_1"
   x="0px"
   y="0px"
   viewBox="0 0 25 200"
   xml:space="preserve"
   sodipodi:docname="road-whisper.svg"
   inkscape:version="1.4 (86a8ad7, 2024-10-11)"
   width="25"
   height="200"
   xmlns:inkscape="http://www.inkscape.org/namespaces/inkscape"
   xmlns:sodipodi="http://sodipodi.sourceforge.net/DTD/sodipodi-0.dtd"
   xmlns="http://www.w3.org/2000/svg"
   xmlns:svg="http://www.w3.org/2000/svg"><defs
   id="defs1" /><sodipodi:namedview
   id="namedview1"
   pagecolor="#000000"
   bordercolor="#000000"
   borderopacity="0.25"
   inkscape:showpageshadow="2"
   inkscape:pageopacity="0.0"
   inkscape:pagecheckerboard="0"
   inkscape:deskcolor="#d1d1d1"
   inkscape:zoom="22.825407"
   inkscape:cx="8.9593146"
   inkscape:cy="97.281946"
   inkscape:window-width="1920"
   inkscape:window-height="1009"
   inkscape:window-x="-8"
   inkscape:window-y="-8"
   inkscape:window-maximized="1"
   inkscape:current-layer="Calque_1" />
<style
   type="text/css"
   id="style1">
	.st0{fill:none;stroke:#FFFFFF;stroke-width:1.5;stroke-linejoin:round;stroke-miterlimit:10;}
</style>
<path
   class="st0"
   d="m 93.863062,98.109517 h -2.237066 c -0.894825,0 -1.677812,-0.1 -2.237076,0.4 -1.342242,1.200037 -3.355601,1.600123 -4.250427,0.2 l -1.230387,-2 c -1.118534,-1.7 -3.914868,-1.7 -5.033402,0 l -1.230389,2 c -1.118533,1.700123 -3.914868,1.700123 -5.033402,0 l -1.230387,-2 c -1.118534,-1.7 -3.914867,-1.7 -5.033403,0 l -1.230386,2 c -1.118534,1.700123 -3.91487,1.700123 -5.033403,0 l -1.230387,-2 c -1.118535,-1.7 -3.914868,-1.7 -5.033403,0 l -1.230387,2 c -1.118534,1.700123 -3.914869,1.700123 -5.033403,0 l -1.230387,-2 c -1.118535,-1.7 -3.914868,-1.7 -5.033403,0 l -1.230387,2 c -1.118533,1.700123 -3.914868,1.700123 -5.033403,0 l -1.230386,-2 c -1.118535,-1.7 -3.914867,-1.7 -5.033403,0 l -1.230388,2 c -1.118533,1.700123 -3.914869,1.700123 -5.033401,0 l -1.230388,-2 c -1.118534,-1.7 -3.914869,-1.7 -5.033403,0 l -1.230388,2 c -1.118534,1.700123 -3.914867,1.700123 -5.0334021,0 l -1.2303853,-2 c -1.1185355,-1.7 -3.9148691,-1.7 -5.0334043,0 l -1.230389,2 c -1.1185313,1.700123 -3.9148668,1.700123 -5.0334007,0 l -1.2303874,-2 c -1.1185338,-1.7 -3.9148685,-1.7 -5.0334023,0 l -1.2303879,2 c -0.894827,1.400123 -2.908187,1.000037 -4.250428,-0.2 -0.559267,-0.5 -1.454094,-0.4 -2.237067,-0.4 h -1.454095"
   id="path1" />
</svg>
