<?xml version="1.0" encoding="UTF-8" standalone="no"?>
<!-- Generator: Adobe Illustrator 27.8.0, SVG Export Plug-In . SVG Version: 6.00 Build 0)  -->

<svg
   version="1.1"
   id="Calque_1"
   x="0px"
   y="0px"
   viewBox="0 0 100 200"
   style="enable-background:new 0 0 100 200;"
   xml:space="preserve"
   sodipodi:docname="road-whisper.svg"
   inkscape:version="1.4 (86a8ad7, 2024-10-11)"
   xmlns:inkscape="http://www.inkscape.org/namespaces/inkscape"
   xmlns:sodipodi="http://sodipodi.sourceforge.net/DTD/sodipodi-0.dtd"
   xmlns="http://www.w3.org/2000/svg"
   xmlns:svg="http://www.w3.org/2000/svg"><defs
   id="defs1" /><sodipodi:namedview
   id="namedview1"
   pagecolor="#ffffff"
   bordercolor="#000000"
   borderopacity="0.25"
   inkscape:showpageshadow="2"
   inkscape:pageopacity="0.0"
   inkscape:pagecheckerboard="0"
   inkscape:deskcolor="#d1d1d1"
   inkscape:zoom="45.650814"
   inkscape:cx="-7.9845236"
   inkscape:cy="103.05402"
   inkscape:window-width="1920"
   inkscape:window-height="1009"
   inkscape:window-x="-8"
   inkscape:window-y="-8"
   inkscape:window-maximized="1"
   inkscape:current-layer="Calque_1" />
<style
   type="text/css"
   id="style1">
	.st0{fill:none;stroke:#FFFFFF;stroke-width:1.5;stroke-linejoin:round;stroke-miterlimit:10;}
</style>
<path
   class="st0"
   d="m 106.99813,98.547625 h -2.26593 c -0.90637,0 -1.69946,-0.1 -2.26594,0.4 -1.35956,1.200035 -3.398895,1.600125 -4.305267,0.2 l -1.246262,-2 c -1.132966,-1.7 -3.965379,-1.7 -5.098345,0 l -1.246263,2 c -1.132965,1.700125 -3.96538,1.700125 -5.098346,0 l -1.246262,-2 c -1.132966,-1.7 -3.965378,-1.7 -5.098346,0 l -1.246261,2 c -1.132966,1.700125 -3.965381,1.700125 -5.098346,0 l -1.246262,-2 c -1.132966,-1.7 -3.965379,-1.7 -5.098346,0 l -1.246262,2 c -1.132966,1.700125 -3.96538,1.700125 -5.098345,0 l -1.246262,-2 c -1.132967,-1.7 -3.96538,-1.7 -5.098347,0 l -1.246262,2 c -1.132965,1.700125 -3.965379,1.700125 -5.098346,0 l -1.246261,-2 c -1.132966,-1.7 -3.965378,-1.7 -5.098346,0 l -1.246262,2 c -1.132965,1.700125 -3.965381,1.700125 -5.098345,0 l -1.246263,-2 c -1.132966,-1.7 -3.965379,-1.7 -5.098345,0 l -1.246263,2 c -1.132966,1.700125 -3.965379,1.700125 -5.098346,0 l -1.24626,-2 c -1.132967,-1.7 -3.96538,-1.7 -5.098347,0 l -1.246264,2 c -1.132963,1.700125 -3.965378,1.700125 -5.0983437,0 l -1.2462623,-2 c -1.1329656,-1.7 -3.9653798,-1.7 -5.0983454,0 l -1.2462624,2 c -0.90637248,1.400125 -2.9457107,1.000035 -4.3052696,-0.2 -0.5664826,-0.5 -1.4728553,-0.4 -2.2659313,-0.4 H -6.298442"
   id="path1" />
</svg>
